<svg width="110" height="38" viewBox="0 0 110 38" fill="none" xmlns="http://www.w3.org/2000/svg">
<g id="logo-icon 1" clip-path="url(#clip0_0_1)">
<g id="Group" filter="url(#filter0_dd_0_1)">
<path id="Vector" d="M29.9 0H13.9C9.53695 0 6 3.53695 6 7.9V23.9C6 28.2631 9.53695 31.8 13.9 31.8H29.9C34.2631 31.8 37.8 28.2631 37.8 23.9V7.9C37.8 3.53695 34.2631 0 29.9 0Z" fill="white"/>
<path id="Vector_2" d="M29.9 0H13.9C9.53695 0 6 3.53695 6 7.9V23.9C6 28.2631 9.53695 31.8 13.9 31.8H29.9C34.2631 31.8 37.8 28.2631 37.8 23.9V7.9C37.8 3.53695 34.2631 0 29.9 0Z" fill="url(#paint0_linear_0_1)"/>
<path id="Vector_3" d="M29.9 0H13.9C9.53695 0 6 3.53695 6 7.9V23.9C6 28.2631 9.53695 31.8 13.9 31.8H29.9C34.2631 31.8 37.8 28.2631 37.8 23.9V7.9C37.8 3.53695 34.2631 0 29.9 0Z" stroke="#D0D5DD" stroke-width="0.2"/>
<path id="Vector_4" d="M21.2546 11.0828C25.6105 9.3504 30.3742 10.7185 32.5373 12.8133C33.006 13.2671 33.4041 13.7275 33.745 14.1852C33.9394 13.1107 33.9552 12.0405 33.7681 11.0055C33.0847 7.22649 29.5195 5.08561 26.3233 6.19149C23.1415 7.2924 21.9005 9.4321 21.9005 9.4321C21.9005 9.4321 20.6595 7.2924 17.4777 6.19149C14.2812 5.08561 10.716 7.22672 10.0328 11.0055C9.52842 13.7944 10.4836 16.8392 12.5103 19.5298C12.9372 19.6732 13.3847 19.7809 13.8586 19.8431C16.6978 20.2163 17.7184 19.457 18.9178 18.9486C19.7142 18.6113 20.3134 18.9942 20.2843 19.2626C20.2392 19.6786 18.6693 20.3895 19.006 20.5388C20.3351 21.1285 21.9718 21.1334 23.2053 20.08C24.738 18.7712 25.3114 19.6659 25.3114 19.6659C25.3114 19.6659 24.5502 21.6076 22.2581 22.5717C20.3457 23.3761 18.3419 23.5743 16.5107 23.3683C18.09 24.4846 19.9035 25.4204 21.9005 26.0883C27.6099 24.1784 31.8276 20.0871 33.3145 15.8096C32.3072 14.8157 31.0716 14.1996 29.5988 13.9763C26.7674 13.5471 25.7322 14.2863 24.5228 14.7708C23.7198 15.0926 23.1285 14.6978 23.163 14.4299C23.2161 14.0148 24.7999 13.3351 24.4661 13.179C23.149 12.5633 21.5125 12.526 20.2585 13.5549C18.7003 14.8332 18.1446 13.9274 18.1446 13.9274C18.1446 13.9274 18.9438 12.0015 21.2546 11.0828ZM20.1709 16.4052H21.2709V15.3052H22.5296V16.4052H23.6296V17.6639H22.5296V18.7639H21.2709V17.6639H20.1709V16.4052Z" fill="url(#paint1_linear_0_1)"/>
<path id="Vector_5" d="M20.1709 16.4052H21.2709V15.3052H22.5296V16.4052H23.6295V17.6639H22.5378C24.1597 18.4834 27.1383 19.7027 30.7177 20.2451C31.8956 18.8517 32.7813 17.3428 33.3143 15.8096C32.3069 14.8157 31.0713 14.1996 29.5986 13.9763C26.7672 13.547 25.7319 14.2863 24.5226 14.7708C23.7196 15.0926 23.1282 14.6978 23.1627 14.4299C23.2159 14.0148 24.7997 13.3351 24.4659 13.179C23.1488 12.5633 21.5123 12.526 20.2583 13.5548C18.7 14.8332 18.1443 13.9274 18.1443 13.9274C18.1443 13.9274 18.9438 12.0013 21.2543 11.0823C25.6102 9.3499 30.3739 10.718 32.537 12.8128C33.0057 13.2666 33.4038 13.7271 33.7447 14.1847C33.9392 13.1102 33.955 12.04 33.7679 11.005C33.0844 7.226 29.5192 5.08512 26.323 6.191C23.1412 7.29191 21.9002 9.4316 21.9002 9.4316C21.9002 9.4316 20.6592 7.29191 17.4774 6.191C15.6519 5.55927 13.7067 5.9883 12.2462 7.17521C12.9323 8.6442 13.736 10.0168 16.0254 12.7773C17.8868 15.0222 20.1709 16.4052 20.1709 16.4052Z" fill="url(#paint2_linear_0_1)"/>
<path id="Vector_6" opacity="0.31" d="M30.1769 7.54954C27.1711 6.03944 24.069 8.3892 23.085 9.6299C24.782 9.2725 26.2668 9.0892 28.1457 9.4839C30.9251 10.0679 31.9653 11.0715 33.2063 12.5542C32.9871 9.8069 31.2518 8.0896 30.1769 7.54954Z" fill="url(#paint3_linear_0_1)"/>
</g>
</g>
<path id="Healthify" d="M53.375 23H52.0469V17.6172H46.0469V23H44.7188V11.5781H46.0469V16.4453H52.0469V11.5781H53.375V23ZM59.6172 14.2812C60.3464 14.2812 60.9714 14.4427 61.4922 14.7656C62.013 15.0885 62.4115 15.5417 62.6875 16.125C62.9635 16.7031 63.1016 17.3802 63.1016 18.1562V18.9609H57.1875C57.2031 19.9661 57.4531 20.7318 57.9375 21.2578C58.4219 21.7839 59.1042 22.0469 59.9844 22.0469C60.526 22.0469 61.0052 21.9974 61.4219 21.8984C61.8385 21.7995 62.2708 21.6536 62.7188 21.4609V22.6016C62.2865 22.7943 61.8568 22.9349 61.4297 23.0234C61.0078 23.112 60.5078 23.1562 59.9297 23.1562C59.1068 23.1562 58.388 22.9896 57.7734 22.6562C57.1641 22.3177 56.6901 21.8229 56.3516 21.1719C56.013 20.5208 55.8438 19.724 55.8438 18.7812C55.8438 17.8594 55.9974 17.0625 56.3047 16.3906C56.6172 15.7135 57.0547 15.1927 57.6172 14.8281C58.1849 14.4635 58.8516 14.2812 59.6172 14.2812ZM59.6016 15.3438C58.9089 15.3438 58.3568 15.5703 57.9453 16.0234C57.5339 16.4766 57.2891 17.1094 57.2109 17.9219H61.7422C61.737 17.4115 61.6562 16.9635 61.5 16.5781C61.349 16.1875 61.1172 15.8854 60.8047 15.6719C60.4922 15.4531 60.0911 15.3438 59.6016 15.3438ZM68.5078 14.2969C69.5286 14.2969 70.2865 14.526 70.7812 14.9844C71.276 15.4427 71.5234 16.1745 71.5234 17.1797V23H70.5781L70.3281 21.7344H70.2656C70.026 22.0469 69.776 22.3099 69.5156 22.5234C69.2552 22.7318 68.9531 22.8906 68.6094 23C68.2708 23.1042 67.8542 23.1562 67.3594 23.1562C66.8385 23.1562 66.375 23.0651 65.9688 22.8828C65.5677 22.7005 65.25 22.4245 65.0156 22.0547C64.7865 21.6849 64.6719 21.2161 64.6719 20.6484C64.6719 19.7943 65.0104 19.138 65.6875 18.6797C66.3646 18.2214 67.3958 17.9714 68.7812 17.9297L70.2578 17.8672V17.3438C70.2578 16.6042 70.099 16.0859 69.7812 15.7891C69.4635 15.4922 69.0156 15.3438 68.4375 15.3438C67.9896 15.3438 67.5625 15.4089 67.1562 15.5391C66.75 15.6693 66.3646 15.8229 66 16L65.6016 15.0156C65.987 14.8177 66.4297 14.6484 66.9297 14.5078C67.4297 14.3672 67.9557 14.2969 68.5078 14.2969ZM70.2422 18.7812L68.9375 18.8359C67.8698 18.8776 67.1172 19.0521 66.6797 19.3594C66.2422 19.6667 66.0234 20.1016 66.0234 20.6641C66.0234 21.1536 66.1719 21.5156 66.4688 21.75C66.7656 21.9844 67.1589 22.1016 67.6484 22.1016C68.4089 22.1016 69.0312 21.8906 69.5156 21.4688C70 21.0469 70.2422 20.4141 70.2422 19.5703V18.7812ZM75.5 23H74.1953V10.8438H75.5V23ZM81.0078 22.0938C81.2214 22.0938 81.4401 22.0755 81.6641 22.0391C81.888 22.0026 82.0703 21.9583 82.2109 21.9062V22.9141C82.0599 22.9818 81.849 23.0391 81.5781 23.0859C81.3125 23.1328 81.0521 23.1562 80.7969 23.1562C80.3438 23.1562 79.9323 23.0781 79.5625 22.9219C79.1927 22.7604 78.8958 22.4896 78.6719 22.1094C78.4531 21.7292 78.3438 21.2031 78.3438 20.5312V15.4531H77.125V14.8203L78.3516 14.3125L78.8672 12.4531H79.6484V14.4375H82.1562V15.4531H79.6484V20.4922C79.6484 21.0286 79.7708 21.4297 80.0156 21.6953C80.2656 21.9609 80.5964 22.0938 81.0078 22.0938ZM85.2422 10.8438V14.4766C85.2422 14.6849 85.237 14.8958 85.2266 15.1094C85.2161 15.3177 85.1979 15.5104 85.1719 15.6875H85.2578C85.4349 15.3854 85.6589 15.1328 85.9297 14.9297C86.2057 14.7214 86.5182 14.5651 86.8672 14.4609C87.2161 14.3516 87.5859 14.2969 87.9766 14.2969C88.6641 14.2969 89.237 14.4062 89.6953 14.625C90.1589 14.8438 90.5052 15.1823 90.7344 15.6406C90.9688 16.099 91.0859 16.6927 91.0859 17.4219V23H89.8047V17.5078C89.8047 16.7943 89.6406 16.2604 89.3125 15.9062C88.9896 15.5521 88.4922 15.375 87.8203 15.375C87.1849 15.375 86.6771 15.4974 86.2969 15.7422C85.9219 15.9818 85.651 16.3359 85.4844 16.8047C85.3229 17.2734 85.2422 17.8464 85.2422 18.5234V23H83.9453V10.8438H85.2422ZM95.0547 14.4375V23H93.7578V14.4375H95.0547ZM94.4219 11.2344C94.6354 11.2344 94.8177 11.3047 94.9688 11.4453C95.125 11.5807 95.2031 11.7943 95.2031 12.0859C95.2031 12.3724 95.125 12.5859 94.9688 12.7266C94.8177 12.8672 94.6354 12.9375 94.4219 12.9375C94.1979 12.9375 94.0104 12.8672 93.8594 12.7266C93.7135 12.5859 93.6406 12.3724 93.6406 12.0859C93.6406 11.7943 93.7135 11.5807 93.8594 11.4453C94.0104 11.3047 94.1979 11.2344 94.4219 11.2344ZM101.617 15.4531H99.4844V23H98.1875V15.4531H96.6719V14.8281L98.1875 14.3984V13.8281C98.1875 13.1094 98.2943 12.526 98.5078 12.0781C98.7214 11.625 99.0312 11.2917 99.4375 11.0781C99.8438 10.8646 100.339 10.7578 100.922 10.7578C101.25 10.7578 101.549 10.7865 101.82 10.8438C102.096 10.901 102.339 10.9661 102.547 11.0391L102.211 12.0625C102.034 12.0052 101.833 11.9531 101.609 11.9062C101.391 11.8542 101.167 11.8281 100.938 11.8281C100.443 11.8281 100.076 11.9896 99.8359 12.3125C99.6016 12.6302 99.4844 13.1302 99.4844 13.8125V14.4375H101.617V15.4531ZM101.844 14.4375H103.234L105.125 19.4062C105.234 19.6979 105.336 19.9792 105.43 20.25C105.523 20.5156 105.607 20.7708 105.68 21.0156C105.753 21.2604 105.81 21.4974 105.852 21.7266H105.906C105.979 21.4661 106.083 21.125 106.219 20.7031C106.354 20.276 106.5 19.8411 106.656 19.3984L108.445 14.4375H109.844L106.117 24.2578C105.919 24.7839 105.688 25.2422 105.422 25.6328C105.161 26.0234 104.844 26.3229 104.469 26.5312C104.094 26.7448 103.641 26.8516 103.109 26.8516C102.865 26.8516 102.648 26.8359 102.461 26.8047C102.273 26.7786 102.112 26.7474 101.977 26.7109V25.6719C102.091 25.6979 102.229 25.7214 102.391 25.7422C102.557 25.763 102.729 25.7734 102.906 25.7734C103.229 25.7734 103.508 25.7109 103.742 25.5859C103.982 25.4661 104.188 25.2891 104.359 25.0547C104.531 24.8203 104.68 24.5417 104.805 24.2188L105.273 23.0156L101.844 14.4375Z" fill="white"/>
<defs>
<filter id="filter0_dd_0_1" x="2.9" y="-2.10001" width="38" height="38" filterUnits="userSpaceOnUse" color-interpolation-filters="sRGB">
<feFlood flood-opacity="0" result="BackgroundImageFix"/>
<feColorMatrix in="SourceAlpha" type="matrix" values="0 0 0 0 0 0 0 0 0 0 0 0 0 0 0 0 0 0 127 0" result="hardAlpha"/>
<feOffset dy="1"/>
<feGaussianBlur stdDeviation="1"/>
<feColorMatrix type="matrix" values="0 0 0 0 0.0627451 0 0 0 0 0.0941176 0 0 0 0 0.156863 0 0 0 0.06 0"/>
<feBlend mode="normal" in2="BackgroundImageFix" result="effect1_dropShadow_0_1"/>
<feColorMatrix in="SourceAlpha" type="matrix" values="0 0 0 0 0 0 0 0 0 0 0 0 0 0 0 0 0 0 127 0" result="hardAlpha"/>
<feOffset dy="1"/>
<feGaussianBlur stdDeviation="1.5"/>
<feColorMatrix type="matrix" values="0 0 0 0 0.0627451 0 0 0 0 0.0941176 0 0 0 0 0.156863 0 0 0 0.1 0"/>
<feBlend mode="normal" in2="effect1_dropShadow_0_1" result="effect2_dropShadow_0_1"/>
<feBlend mode="normal" in="SourceGraphic" in2="effect2_dropShadow_0_1" result="shape"/>
</filter>
<linearGradient id="paint0_linear_0_1" x1="21.9" y1="-0.1" x2="21.9" y2="31.9" gradientUnits="userSpaceOnUse">
<stop stop-color="white"/>
<stop offset="1" stop-color="#D0D5DD"/>
</linearGradient>
<linearGradient id="paint1_linear_0_1" x1="13.0989" y1="22.1137" x2="30.7347" y2="4.47791" gradientUnits="userSpaceOnUse">
<stop stop-color="#0076C1"/>
<stop offset="0.0737" stop-color="#0B82C6"/>
<stop offset="0.2766" stop-color="#269ED3"/>
<stop offset="0.4546" stop-color="#36AFDA"/>
<stop offset="0.587" stop-color="#3CB5DD"/>
</linearGradient>
<linearGradient id="paint2_linear_0_1" x1="13.0388" y1="22.1537" x2="30.7274" y2="4.46509" gradientUnits="userSpaceOnUse">
<stop stop-color="#00A482"/>
<stop offset="1" stop-color="#79DD83"/>
</linearGradient>
<linearGradient id="paint3_linear_0_1" x1="27.7608" y1="11.4073" x2="31.4287" y2="8.0132" gradientUnits="userSpaceOnUse">
<stop stop-color="#00A482"/>
<stop offset="1" stop-color="#79DD83"/>
</linearGradient>
<clipPath id="clip0_0_1">
<rect width="38" height="38" fill="white"/>
</clipPath>
</defs>
</svg>
